<svg xmlns="http://www.w3.org/2000/svg" width="100%" viewBox="0 0 720 800" role="img" aria-label="SecureScope capability constellation">
<defs><radialGradient id="core" cx="36%" cy="30%"><stop offset="0%" stop-color="#5cf3e4"/><stop offset="100%" stop-color="#0a8f9c"/></radialGradient></defs>
<rect x="0" y="0" width="720" height="800" rx="18" fill="#0a1120"/>
<text x="360" y="34" text-anchor="middle" fill="#5eead4" font-family="system-ui,sans-serif" font-size="12" letter-spacing="3">SECURESCOPE · CAPABILITY CONSTELLATION</text>
<text x="360" y="58" text-anchor="middle" fill="#f1f5f9" font-family="system-ui,sans-serif" font-size="17">One core. Seven fronts. Every layer of your code.</text>
<path d="M360,330 Q378.0,247.5 360.0,180.0" fill="none" stroke="#38bdf8" stroke-width="2.2" stroke-opacity="0.8"/>
<path d="M360.0,180.0 Q330.0,143.3 277.6,115.3" fill="none" stroke="#38bdf8" stroke-width="1.2" stroke-opacity="0.4"/>
<circle cx="277.6" cy="115.3" r="4" fill="#38bdf8"/>
<text x="269.6" y="119.3" text-anchor="end" fill="#d8e2f0" font-family="system-ui,sans-serif" font-size="13">Semgrep</text>
<path d="M360.0,180.0 Q347.2,120.1 310.8,64.5" fill="none" stroke="#38bdf8" stroke-width="1.2" stroke-opacity="0.4"/>
<circle cx="310.8" cy="64.5" r="4" fill="#38bdf8"/>
<text x="302.8" y="68.5" text-anchor="end" fill="#d8e2f0" font-family="system-ui,sans-serif" font-size="13">OWASP/CWE</text>
<path d="M360.0,180.0 Q372.0,140.0 360.0,100.0" fill="none" stroke="#38bdf8" stroke-width="1.2" stroke-opacity="0.4"/>
<circle cx="360.0" cy="100.0" r="4" fill="#38bdf8"/>
<text x="368.0" y="104.0" text-anchor="start" fill="#d8e2f0" font-family="system-ui,sans-serif" font-size="13">Rulepacks</text>
<path d="M360.0,180.0 Q396.4,124.4 409.2,64.5" fill="none" stroke="#38bdf8" stroke-width="1.2" stroke-opacity="0.4"/>
<circle cx="409.2" cy="64.5" r="4" fill="#38bdf8"/>
<text x="417.2" y="68.5" text-anchor="start" fill="#d8e2f0" font-family="system-ui,sans-serif" font-size="13">ATT&amp;CK map</text>
<path d="M360.0,180.0 Q412.4,151.9 442.4,115.3" fill="none" stroke="#38bdf8" stroke-width="1.2" stroke-opacity="0.4"/>
<circle cx="442.4" cy="115.3" r="4" fill="#38bdf8"/>
<text x="450.4" y="119.3" text-anchor="start" fill="#d8e2f0" font-family="system-ui,sans-serif" font-size="13">AI advisor</text>
<circle cx="360.0" cy="180.0" r="16" fill="none" stroke="#38bdf8" stroke-opacity="0.35"/>
<circle cx="360.0" cy="180.0" r="8" fill="#38bdf8"/>
<path d="M360,330 Q435.7,292.6 477.3,236.5" fill="none" stroke="#a3e635" stroke-width="2.2" stroke-opacity="0.8"/>
<path d="M477.3,236.5 Q487.2,190.2 476.5,131.7" fill="none" stroke="#a3e635" stroke-width="1.2" stroke-opacity="0.4"/>
<circle cx="476.5" cy="131.7" r="4" fill="#a3e635"/>
<text x="484.5" y="135.7" text-anchor="start" fill="#d8e2f0" font-family="system-ui,sans-serif" font-size="13">OSV CVEs</text>
<path d="M477.3,236.5 Q516.1,189.1 536.9,126.0" fill="none" stroke="#a3e635" stroke-width="1.2" stroke-opacity="0.4"/>
<circle cx="536.9" cy="126.0" r="4" fill="#a3e635"/>
<text x="544.9" y="130.0" text-anchor="start" fill="#d8e2f0" font-family="system-ui,sans-serif" font-size="13">EPSS + KEV</text>
<path d="M477.3,236.5 Q516.0,220.9 539.8,186.6" fill="none" stroke="#a3e635" stroke-width="1.2" stroke-opacity="0.4"/>
<circle cx="539.8" cy="186.6" r="4" fill="#a3e635"/>
<text x="547.8" y="190.6" text-anchor="start" fill="#d8e2f0" font-family="system-ui,sans-serif" font-size="13">Reachability</text>
<path d="M477.3,236.5 Q543.4,230.3 598.2,202.9" fill="none" stroke="#a3e635" stroke-width="1.2" stroke-opacity="0.4"/>
<circle cx="598.2" cy="202.9" r="4" fill="#a3e635"/>
<text x="606.2" y="206.9" text-anchor="start" fill="#d8e2f0" font-family="system-ui,sans-serif" font-size="13">Fix PRs</text>
<path d="M477.3,236.5 Q531.9,260.0 579.3,260.6" fill="none" stroke="#a3e635" stroke-width="1.2" stroke-opacity="0.4"/>
<circle cx="579.3" cy="260.6" r="4" fill="#a3e635"/>
<text x="587.3" y="264.6" text-anchor="start" fill="#d8e2f0" font-family="system-ui,sans-serif" font-size="13">Polyglot</text>
<circle cx="477.3" cy="236.5" r="16" fill="none" stroke="#a3e635" stroke-opacity="0.35"/>
<circle cx="477.3" cy="236.5" r="8" fill="#a3e635"/>
<path d="M360,330 Q436.4,365.9 506.2,363.4" fill="none" stroke="#fb7185" stroke-width="2.2" stroke-opacity="0.8"/>
<path d="M506.2,363.4 Q548.7,342.3 587.7,297.4" fill="none" stroke="#fb7185" stroke-width="1.2" stroke-opacity="0.4"/>
<circle cx="587.7" cy="297.4" r="4" fill="#fb7185"/>
<text x="595.7" y="301.4" text-anchor="start" fill="#d8e2f0" font-family="system-ui,sans-serif" font-size="13">Secret scan</text>
<path d="M506.2,363.4 Q567.5,364.2 629.8,341.1" fill="none" stroke="#fb7185" stroke-width="1.2" stroke-opacity="0.4"/>
<circle cx="629.8" cy="341.1" r="4" fill="#fb7185"/>
<text x="637.8" y="345.1" text-anchor="start" fill="#d8e2f0" font-family="system-ui,sans-serif" font-size="13">Entropy</text>
<path d="M506.2,363.4 Q542.6,384.0 584.2,381.2" fill="none" stroke="#fb7185" stroke-width="1.2" stroke-opacity="0.4"/>
<circle cx="584.2" cy="381.2" r="4" fill="#fb7185"/>
<text x="592.2" y="385.2" text-anchor="start" fill="#d8e2f0" font-family="system-ui,sans-serif" font-size="13">Git history</text>
<path d="M506.2,363.4 Q552.3,411.2 607.9,437.0" fill="none" stroke="#fb7185" stroke-width="1.2" stroke-opacity="0.4"/>
<circle cx="607.9" cy="437.0" r="4" fill="#fb7185"/>
<text x="615.9" y="441.0" text-anchor="start" fill="#d8e2f0" font-family="system-ui,sans-serif" font-size="13">YARA</text>
<path d="M506.2,363.4 Q521.9,420.7 551.0,458.1" fill="none" stroke="#fb7185" stroke-width="1.2" stroke-opacity="0.4"/>
<circle cx="551.0" cy="458.1" r="4" fill="#fb7185"/>
<text x="559.0" y="462.1" text-anchor="start" fill="#d8e2f0" font-family="system-ui,sans-serif" font-size="13">Ransomware</text>
<circle cx="506.2" cy="363.4" r="16" fill="none" stroke="#fb7185" stroke-opacity="0.35"/>
<circle cx="506.2" cy="363.4" r="8" fill="#fb7185"/>
<path d="M360,330 Q379.6,412.1 425.1,465.1" fill="none" stroke="#fbbf24" stroke-width="2.2" stroke-opacity="0.8"/>
<path d="M425.1,465.1 Q468.0,485.2 527.4,487.7" fill="none" stroke="#fbbf24" stroke-width="1.2" stroke-opacity="0.4"/>
<circle cx="527.4" cy="487.7" r="4" fill="#fbbf24"/>
<text x="535.4" y="491.7" text-anchor="start" fill="#d8e2f0" font-family="system-ui,sans-serif" font-size="13">IaC checks</text>
<path d="M425.1,465.1 Q455.4,517.6 505.9,557.2" fill="none" stroke="#fbbf24" stroke-width="1.2" stroke-opacity="0.4"/>
<circle cx="505.9" cy="557.2" r="4" fill="#fbbf24"/>
<text x="513.9" y="561.2" text-anchor="start" fill="#d8e2f0" font-family="system-ui,sans-serif" font-size="13">TF/K8s</text>
<path d="M425.1,465.1 Q418.1,510.3 433.8,547.8" fill="none" stroke="#fbbf24" stroke-width="1.2" stroke-opacity="0.4"/>
<circle cx="433.8" cy="547.8" r="4" fill="#fbbf24"/>
<text x="441.8" y="551.8" text-anchor="start" fill="#d8e2f0" font-family="system-ui,sans-serif" font-size="13">Trivy</text>
<path d="M425.1,465.1 Q391.7,533.1 382.2,599.1" fill="none" stroke="#fbbf24" stroke-width="1.2" stroke-opacity="0.4"/>
<circle cx="382.2" cy="599.1" r="4" fill="#fbbf24"/>
<text x="390.2" y="603.1" text-anchor="start" fill="#d8e2f0" font-family="system-ui,sans-serif" font-size="13">Sandbox</text>
<circle cx="425.1" cy="465.1" r="16" fill="none" stroke="#fbbf24" stroke-opacity="0.35"/>
<circle cx="425.1" cy="465.1" r="8" fill="#fbbf24"/>
<path d="M360,330 Q308.0,396.5 294.9,465.1" fill="none" stroke="#2dd4bf" stroke-width="2.2" stroke-opacity="0.8"/>
<path d="M294.9,465.1 Q306.0,511.2 341.1,559.2" fill="none" stroke="#2dd4bf" stroke-width="1.2" stroke-opacity="0.4"/>
<circle cx="341.1" cy="559.2" r="4" fill="#2dd4bf"/>
<text x="333.1" y="563.2" text-anchor="end" fill="#d8e2f0" font-family="system-ui,sans-serif" font-size="13">PCI/NIST</text>
<path d="M294.9,465.1 Q280.5,524.7 289.1,590.5" fill="none" stroke="#2dd4bf" stroke-width="1.2" stroke-opacity="0.4"/>
<circle cx="289.1" cy="590.5" r="4" fill="#2dd4bf"/>
<text x="281.1" y="594.5" text-anchor="end" fill="#d8e2f0" font-family="system-ui,sans-serif" font-size="13">Licenses</text>
<path d="M294.9,465.1 Q266.8,496.0 260.2,537.2" fill="none" stroke="#2dd4bf" stroke-width="1.2" stroke-opacity="0.4"/>
<circle cx="260.2" cy="537.2" r="4" fill="#2dd4bf"/>
<text x="252.2" y="541.2" text-anchor="end" fill="#d8e2f0" font-family="system-ui,sans-serif" font-size="13">SBOM</text>
<path d="M294.9,465.1 Q238.0,499.4 200.5,547.8" fill="none" stroke="#2dd4bf" stroke-width="1.2" stroke-opacity="0.4"/>
<circle cx="200.5" cy="547.8" r="4" fill="#2dd4bf"/>
<text x="192.5" y="551.8" text-anchor="end" fill="#d8e2f0" font-family="system-ui,sans-serif" font-size="13">Typosquat</text>
<path d="M294.9,465.1 Q235.5,467.7 192.6,487.7" fill="none" stroke="#2dd4bf" stroke-width="1.2" stroke-opacity="0.4"/>
<circle cx="192.6" cy="487.7" r="4" fill="#2dd4bf"/>
<text x="184.6" y="491.7" text-anchor="end" fill="#d8e2f0" font-family="system-ui,sans-serif" font-size="13">OpenSSF</text>
<circle cx="294.9" cy="465.1" r="16" fill="none" stroke="#2dd4bf" stroke-opacity="0.35"/>
<circle cx="294.9" cy="465.1" r="8" fill="#2dd4bf"/>
<path d="M360,330 Q275.6,330.8 213.8,363.4" fill="none" stroke="#c084fc" stroke-width="2.2" stroke-opacity="0.8"/>
<path d="M213.8,363.4 Q184.7,400.8 169.0,458.1" fill="none" stroke="#c084fc" stroke-width="1.2" stroke-opacity="0.4"/>
<circle cx="169.0" cy="458.1" r="4" fill="#c084fc"/>
<text x="161.0" y="462.1" text-anchor="end" fill="#d8e2f0" font-family="system-ui,sans-serif" font-size="13">HTML report</text>
<path d="M213.8,363.4 Q155.8,381.3 106.1,421.7" fill="none" stroke="#c084fc" stroke-width="1.2" stroke-opacity="0.4"/>
<circle cx="106.1" cy="421.7" r="4" fill="#c084fc"/>
<text x="98.1" y="425.7" text-anchor="end" fill="#d8e2f0" font-family="system-ui,sans-serif" font-size="13">PDF/SARIF</text>
<path d="M213.8,363.4 Q171.3,346.5 131.2,353.5" fill="none" stroke="#c084fc" stroke-width="1.2" stroke-opacity="0.4"/>
<circle cx="131.2" cy="353.5" r="4" fill="#c084fc"/>
<text x="123.2" y="357.5" text-anchor="end" fill="#d8e2f0" font-family="system-ui,sans-serif" font-size="13">Trends</text>
<path d="M213.8,363.4 Q154.9,315.7 92.7,291.8" fill="none" stroke="#c084fc" stroke-width="1.2" stroke-opacity="0.4"/>
<circle cx="92.7" cy="291.8" r="4" fill="#c084fc"/>
<text x="84.7" y="295.8" text-anchor="end" fill="#d8e2f0" font-family="system-ui,sans-serif" font-size="13">PR comments</text>
<circle cx="213.8" cy="363.4" r="16" fill="none" stroke="#c084fc" stroke-opacity="0.35"/>
<circle cx="213.8" cy="363.4" r="8" fill="#c084fc"/>
<path d="M360,330 Q306.7,264.5 242.7,236.5" fill="none" stroke="#f472b6" stroke-width="2.2" stroke-opacity="0.8"/>
<path d="M242.7,236.5 Q195.4,237.1 140.7,260.6" fill="none" stroke="#f472b6" stroke-width="1.2" stroke-opacity="0.4"/>
<circle cx="140.7" cy="260.6" r="4" fill="#f472b6"/>
<text x="132.7" y="264.6" text-anchor="end" fill="#d8e2f0" font-family="system-ui,sans-serif" font-size="13">Dashboard</text>
<path d="M242.7,236.5 Q185.3,213.3 117.3,211.8" fill="none" stroke="#f472b6" stroke-width="1.2" stroke-opacity="0.4"/>
<circle cx="117.3" cy="211.8" r="4" fill="#f472b6"/>
<text x="109.3" y="215.8" text-anchor="end" fill="#d8e2f0" font-family="system-ui,sans-serif" font-size="13">Accounts</text>
<path d="M242.7,236.5 Q213.2,208.4 170.2,200.2" fill="none" stroke="#f472b6" stroke-width="1.2" stroke-opacity="0.4"/>
<circle cx="170.2" cy="200.2" r="4" fill="#f472b6"/>
<text x="162.2" y="204.2" text-anchor="end" fill="#d8e2f0" font-family="system-ui,sans-serif" font-size="13">Sharing</text>
<path d="M242.7,236.5 Q210.4,182.8 161.8,146.6" fill="none" stroke="#f472b6" stroke-width="1.2" stroke-opacity="0.4"/>
<circle cx="161.8" cy="146.6" r="4" fill="#f472b6"/>
<text x="153.8" y="150.6" text-anchor="end" fill="#d8e2f0" font-family="system-ui,sans-serif" font-size="13">Threat feed</text>
<path d="M242.7,236.5 Q238.6,186.1 215.8,150.8" fill="none" stroke="#f472b6" stroke-width="1.2" stroke-opacity="0.4"/>
<circle cx="215.8" cy="150.8" r="4" fill="#f472b6"/>
<text x="207.8" y="154.8" text-anchor="end" fill="#d8e2f0" font-family="system-ui,sans-serif" font-size="13">GitHub/Jira</text>
<path d="M242.7,236.5 Q243.3,160.8 223.3,97.2" fill="none" stroke="#f472b6" stroke-width="1.2" stroke-opacity="0.4"/>
<circle cx="223.3" cy="97.2" r="4" fill="#f472b6"/>
<text x="215.3" y="101.2" text-anchor="end" fill="#d8e2f0" font-family="system-ui,sans-serif" font-size="13">CLI/CI/K8s</text>
<circle cx="242.7" cy="236.5" r="16" fill="none" stroke="#f472b6" stroke-opacity="0.35"/>
<circle cx="242.7" cy="236.5" r="8" fill="#f472b6"/>
<circle cx="360" cy="330" r="60" fill="none" stroke="#5eead4" stroke-opacity="0.28" stroke-dasharray="4 8"/>
<circle cx="360" cy="330" r="42" fill="url(#core)"/>
<text x="360" y="326" text-anchor="middle" fill="#04121a" font-family="system-ui,sans-serif" font-size="13" font-weight="700" letter-spacing="1.2">SECURE</text>
<text x="360" y="343" text-anchor="middle" fill="#04121a" font-family="system-ui,sans-serif" font-size="13" font-weight="700" letter-spacing="1.2">SCOPE</text>
<circle cx="70" cy="696" r="6" fill="#38bdf8"/>
<text x="83" y="700" fill="#c4d0e2" font-family="system-ui,sans-serif" font-size="13">Static analysis</text>
<circle cx="230" cy="696" r="6" fill="#a3e635"/>
<text x="243" y="700" fill="#c4d0e2" font-family="system-ui,sans-serif" font-size="13">Dependencies</text>
<circle cx="390" cy="696" r="6" fill="#fb7185"/>
<text x="403" y="700" fill="#c4d0e2" font-family="system-ui,sans-serif" font-size="13">Secrets &amp; malware</text>
<circle cx="550" cy="696" r="6" fill="#fbbf24"/>
<text x="563" y="700" fill="#c4d0e2" font-family="system-ui,sans-serif" font-size="13">Infrastructure</text>
<circle cx="70" cy="726" r="6" fill="#2dd4bf"/>
<text x="83" y="730" fill="#c4d0e2" font-family="system-ui,sans-serif" font-size="13">Governance</text>
<circle cx="230" cy="726" r="6" fill="#c084fc"/>
<text x="243" y="730" fill="#c4d0e2" font-family="system-ui,sans-serif" font-size="13">Reporting</text>
<circle cx="390" cy="726" r="6" fill="#f472b6"/>
<text x="403" y="730" fill="#c4d0e2" font-family="system-ui,sans-serif" font-size="13">Platform</text>
</svg>